<svg width="40" height="40" viewBox="0 0 40 40" fill="none" xmlns="http://www.w3.org/2000/svg">
<rect width="40" height="40" rx="8" fill="url(#paint0_linear_8_405)"/>
<path d="M12 23V21H14V23H12ZM6 13C6 11.9391 6.42143 10.9217 7.17157 10.1716C7.92172 9.42143 8.93913 9 10 9H24C25.0609 9 26.0783 9.42143 26.8284 10.1716C27.5786 10.9217 28 11.9391 28 13V26C28 26.2652 28.1054 26.5196 28.2929 26.7071C28.4804 26.8946 28.7348 27 29 27C29.2652 27 29.5196 26.8946 29.7071 26.7071C29.8946 26.5196 30 26.2652 30 26V13C31.0609 13 32.0783 13.4214 32.8284 14.1716C33.5786 14.9217 34 15.9391 34 17V26C34 27.3261 33.4732 28.5979 32.5355 29.5355C31.5979 30.4732 30.3261 31 29 31H11C9.67392 31 8.40215 30.4732 7.46447 29.5355C6.52678 28.5979 6 27.3261 6 26V13ZM11 15C10.7348 15 10.4804 15.1054 10.2929 15.2929C10.1054 15.4804 10 15.7348 10 16C10 16.2652 10.1054 16.5196 10.2929 16.7071C10.4804 16.8946 10.7348 17 11 17H23C23.2652 17 23.5196 16.8946 23.7071 16.7071C23.8946 16.5196 24 16.2652 24 16C24 15.7348 23.8946 15.4804 23.7071 15.2929C23.5196 15.1054 23.2652 15 23 15H11ZM11 19C10.7348 19 10.4804 19.1054 10.2929 19.2929C10.1054 19.4804 10 19.7348 10 20V24C10 24.2652 10.1054 24.5196 10.2929 24.7071C10.4804 24.8946 10.7348 25 11 25H15C15.2652 25 15.5196 24.8946 15.7071 24.7071C15.8946 24.5196 16 24.2652 16 24V20C16 19.7348 15.8946 19.4804 15.7071 19.2929C15.5196 19.1054 15.2652 19 15 19H11ZM19 19C18.7348 19 18.4804 19.1054 18.2929 19.2929C18.1054 19.4804 18 19.7348 18 20C18 20.2652 18.1054 20.5196 18.2929 20.7071C18.4804 20.8946 18.7348 21 19 21H23C23.2652 21 23.5196 20.8946 23.7071 20.7071C23.8946 20.5196 24 20.2652 24 20C24 19.7348 23.8946 19.4804 23.7071 19.2929C23.5196 19.1054 23.2652 19 23 19H19ZM19 23C18.7348 23 18.4804 23.1054 18.2929 23.2929C18.1054 23.4804 18 23.7348 18 24C18 24.2652 18.1054 24.5196 18.2929 24.7071C18.4804 24.8946 18.7348 25 19 25H23C23.2652 25 23.5196 24.8946 23.7071 24.7071C23.8946 24.5196 24 24.2652 24 24C24 23.7348 23.8946 23.4804 23.7071 23.2929C23.5196 23.1054 23.2652 23 23 23H19Z" fill="#1B4A58"/>
<defs>
<linearGradient id="paint0_linear_8_405" x1="-2.75" y1="40" x2="40" y2="-8.73581e-07" gradientUnits="userSpaceOnUse">
<stop stop-color="#DEECA3"/>
<stop offset="1" stop-color="#DEECA3"/>
</linearGradient>
</defs>
</svg>
